<svg version="1.0" xmlns="http://www.w3.org/2000/svg" width="1em" height="1em" viewBox="0 0 200 197" preserveAspectRatio="xMidYMid meet"><g transform="translate(0.000000,197.000000) scale(0.100000,-0.100000)" fill="currentColor" stroke="none"><path d="M303 1910 c-110 -22 -190 -101 -228 -226 -22 -74 -22 -1321 0 -1398 33 -114 107 -189 217 -221 49 -14 133 -15 729 -13 l674 3 56 26 c66 31 120 84 151 148 l23 46 3 680 c2 474 0 696 -8 732 -14 66 -61 136 -115 173 -86 59 -95 60 -810 59 -357 -1 -669 -5 -692 -9z m1442 -54 c61 -29 97 -65 127 -131 l23 -50 0 -691 0 -690 -30 -59 c-34 -66 -93 -118 -153 -135 -24 -6 -281 -10 -722 -10 l-685 0 -51 24 c-63 29 -120 95 -139 160 -22 74 -22 1348 0 1422 19 65 76 131 139 160 l51 24 695 0 695 0 50 -24z"/><path d="M562 1563 c-8 -3 -11 -15 -7 -37 4 -17 -1 -82 -9 -144 -9 -62 -16 -137 -16 -166 0 -65 -4 -69 -140 -136 -58 -28 -105 -56 -105 -63 0 -7 16 -17 35 -24 62 -21 92 -16 149 27 30 22 55 39 57 37 2 -1 4 -52 4 -112 3 -186 57 -483 96 -526 19 -21 82 -26 115 -9 26 14 24 20 -16 71 -19 24 -41 67 -49 94 -22 75 -37 199 -25 203 6 3 6 8 0 16 -16 19 -26 287 -13 312 6 11 28 26 49 33 21 7 43 14 50 17 7 3 14 -11 18 -38 11 -64 44 -135 77 -163 37 -32 97 -49 140 -41 38 7 147 57 168 77 8 8 36 30 61 51 25 20 56 48 70 62 32 35 148 129 177 145 47 25 87 -20 80 -90 -4 -48 -48 -67 -169 -75 -88 -6 -119 -15 -119 -35 0 -4 20 -27 45 -50 44 -41 69 -91 79 -159 5 -32 2 -38 -39 -68 -25 -18 -45 -37 -45 -43 0 -6 16 3 35 20 20 17 41 31 47 31 6 0 -2 -10 -18 -22 -16 -12 -42 -33 -59 -47 -16 -14 -25 -19 -20 -10 16 25 -31 -31 -75 -91 -41 -56 -49 -87 -28 -108 19 -19 23 -16 63 45 47 71 134 165 146 157 5 -3 9 -27 9 -54 0 -41 4 -52 27 -70 27 -21 50 -22 45 0 -2 7 -7 45 -12 84 -8 61 -7 73 7 84 52 39 111 -10 143 -119 22 -72 43 -104 62 -93 13 8 2 66 -28 146 -28 73 -69 118 -110 118 -29 0 -31 11 -4 35 23 21 28 99 8 112 -7 4 -37 12 -67 18 -68 14 -77 32 -21 41 51 8 119 72 138 129 22 65 26 95 12 95 -7 0 -10 7 -7 15 10 24 -49 65 -92 65 -59 0 -163 -58 -286 -159 -171 -141 -268 -182 -316 -135 -21 21 -36 96 -31 151 3 29 8 33 55 49 89 29 89 29 68 67 -16 29 -23 32 -59 30 -40 -2 -41 -1 -32 23 15 39 12 68 -10 92 -43 46 -68 24 -88 -79 l-17 -84 -58 -29 c-32 -16 -60 -26 -64 -22 -9 9 27 125 54 172 13 22 23 48 23 58 0 54 -110 137 -158 119z m915 -650 c4 -11 -34 -53 -47 -53 -3 0 -7 16 -8 36 -3 33 -1 35 24 32 15 -2 29 -8 31 -15z"/></g></svg>